<?xml version="1.0" encoding="utf-8"?>
<!-- Generator: Adobe Illustrator 16.0.0, SVG Export Plug-In . SVG Version: 6.00 Build 0)  -->
<!DOCTYPE svg PUBLIC "-//W3C//DTD SVG 1.1//EN" "http://www.w3.org/Graphics/SVG/1.1/DTD/svg11.dtd">
<svg version="1.1" id="Layer_1" xmlns="http://www.w3.org/2000/svg" xmlns:xlink="http://www.w3.org/1999/xlink" x="0px" y="0px"
	 width="338.095px" height="101.587px" viewBox="0 0 338.095 101.587" enable-background="new 0 0 338.095 101.587"
	 xml:space="preserve">
<g>
	<path fill="none" stroke="#000000" stroke-width="4" stroke-miterlimit="10" d="M293.664,70.716"/>
</g>
<g>
	<g>
		<path fill="#231F20" d="M30.388,9.88H9.18v60.063h2.122V47.413c-0.022-1.376-0.022-2.764,0-3.955V11.833h19.086
			c10.859,0.085,16.287,8.312,16.287,16.204c0,7.805-5.26,15.86-16.287,15.86l-8.013-0.005c-0.034,0.578-0.025,1.462,0.004,2.127
			h8.092c12.217-0.084,18.325-9.16,18.325-17.898C48.797,19.3,42.604,10.051,30.388,9.88z"/>
	</g>
	<g>
		<polyline fill="#231F20" points="62.372,38.893 62.372,12.001 95.965,12.001 95.965,9.88 60.25,9.88 60.25,69.944 95.965,69.944 
			95.965,67.823 62.372,67.823 62.372,41.187 		"/>
	</g>
	<g>
		<path fill="#231F20" d="M70.688,41.187h22.732v-2.294H70.688C70.632,39.708,70.688,40.261,70.688,41.187z"/>
	</g>
	<g>
		<path fill="#231F20" d="M110.217,41.27V11.833h19.26c9.585-0.171,16.54,3.562,16.54,14.422c0,10.604-5.599,15.015-16.54,15.015
			h-6.734c-0.011,0.646,0.025,1.261,0.051,1.866h1.084l20.19,26.808h2.459l-20.274-26.808h3.224
			c10.941,0,18.577-4.495,18.577-16.965C147.8,13.953,139.826,9.88,129.391,9.88h-21.208v60.063h2.034V43.136"/>
	</g>
	<g>
		<path fill="#231F20" d="M164.089,46.36l12.725-34.441h0.34L189.88,46.36l0,0c0.342,0.867,0.452,1.352,0.764,2.12l0,0l7.973,21.464
			h2.291L178.682,9.88h-3.395l-22.226,60.063h2.291l7.973-21.464"/>
	</g>
	<g>
		<path fill="#231F20" d="M207.78,68.079l13.769-20.363c-0.584-0.317-1.201-0.463-1.801-0.788l-14.854,22l0.848,1.017h39.447v-1.865
			H207.78z"/>
	</g>
	<g>
		<path fill="#231F20" d="M230.43,31.099c0.32,0.538,0.773,1.093,1.262,1.611l14.688-21.726l-0.765-1.104h-39.022v1.87h36.9
			L230.43,31.099z"/>
	</g>
	<g>
		<path fill="#231F20" d="M259.02,69.944h-2.121V9.88h2.121V69.944z"/>
	</g>
	<g>
		<path fill="#231F20" d="M322.135,9.88l-17.207,39.133c0.637,0.462,1.157,0.882,1.725,1.295l17.094-38.9h0.764v58.536h2.121V9.88
			H322.135z"/>
	</g>
	<g>
		<path fill="#231F20" d="M295.526,49.308c0.457-0.222,0.812-0.563,0.916-0.592L279.296,9.88h-4.497v60.063h2.121V12.09l0.764-0.089
			l16.901,37.861C294.907,49.79,295.357,49.39,295.526,49.308z"/>
	</g>
</g>
<g>
	<path fill="#231F20" d="M46.544,82.349c0-2.911,2.822-4.435,5.623-4.435c1.994,0,3.987,0.762,4.928,2.284l-0.493,0.359
		c-0.829-1.367-2.688-2.106-4.502-2.106c-2.464,0-4.995,1.3-4.995,3.897v7.438c0,2.598,2.531,3.875,4.995,3.875
		c1.792,0,3.629-0.649,4.502-1.994l0.493,0.247c-0.94,1.523-2.979,2.307-4.995,2.307c-2.755,0-5.555-1.5-5.555-4.435V82.349z"/>
</g>
<g>
	<path fill="#231F20" d="M98.609,93.997h-0.56V78.137h0.56v7.661h10.013v-7.661h0.56v15.859h-0.56v-7.639H98.609V93.997z"/>
</g>
<g>
	<path fill="#231F20" d="M148.041,89.652c0,2.688,2.486,4.032,4.995,4.032c2.486,0,5.018-1.344,5.018-4.032V78.138h0.56v11.514
		c0,3.024-2.8,4.569-5.578,4.569s-5.555-1.545-5.555-4.569V78.138h0.56V89.652z"/>
</g>
<g>
	<path fill="#231F20" d="M204.974,93.998l-5.332-7.078h-3.606v7.078h-0.538V78.138h5.601c2.755,0,4.86,1.075,4.929,4.301
		c0,3.293-2.017,4.48-4.906,4.48h-0.852l5.354,7.078H204.974z M201.12,86.426c2.89,0,4.368-1.165,4.368-3.965
		c0-2.867-1.837-3.853-4.368-3.808h-5.085v7.772H201.12z"/>
</g>
<g>
	<path fill="#231F20" d="M248.126,82.347c0-2.911,2.822-4.435,5.622-4.435c1.993,0,3.987,0.762,4.928,2.284l-0.493,0.359
		c-0.828-1.367-2.688-2.106-4.502-2.106c-2.464,0-4.995,1.3-4.995,3.897v7.438c0,2.598,2.531,3.875,4.995,3.875
		c1.792,0,3.629-0.649,4.502-1.994l0.493,0.247c-0.94,1.523-2.979,2.307-4.995,2.307c-2.755,0-5.555-1.5-5.555-4.435V82.347z"/>
</g>
<g>
	<path fill="#231F20" d="M288.423,93.997h-0.561V78.137h0.561v7.661h10.012v-7.661h0.561v15.859h-0.561v-7.639h-10.012V93.997z"/>
</g>
</svg>
